<svg version="1.1" id="Layer_1" xmlns="http://www.w3.org/2000/svg" xmlns:xlink="http://www.w3.org/1999/xlink" x="0px" y="0px"
	 width="100%" viewBox="0 0 768 752" enable-background="new 0 0 768 752" xml:space="preserve">
<path fill="#fff" opacity="1.000000" stroke="none" 
	d="
M155.875732,503.000000 
	C155.865341,496.834015 155.376602,491.117126 155.972794,485.515717 
	C156.632019,479.322021 153.980606,475.242706 149.851440,471.150787 
	C121.815651,443.367889 93.972923,415.390198 65.923767,387.620911 
	C62.904167,384.631470 63.536179,382.926697 66.143303,380.331573 
	C94.246361,352.358185 122.217957,324.252502 150.374771,296.333588 
	C154.157867,292.582458 156.035599,288.872803 156.002365,283.305695 
	C155.756622,242.145493 155.875931,200.983063 155.907654,159.821350 
	C155.913528,152.203430 156.169373,151.983231 163.796326,151.981689 
	C204.958038,151.973328 246.120026,151.907410 287.281128,152.066757 
	C292.306915,152.086197 295.951202,150.731674 299.567383,147.077286 
	C327.337128,119.013969 355.366150,91.207420 383.195740,63.202961 
	C386.430634,59.947788 388.635529,59.427746 392.121613,62.968048 
	C409.172516,80.283958 426.448975,97.377670 443.636688,114.558990 
	C455.414246,126.332146 467.208771,138.088715 478.917877,149.929672 
	C481.107330,152.143723 483.707153,151.934921 486.349335,151.935669 
	C528.177673,151.947464 570.005981,151.950256 611.834290,151.949692 
	C619.314331,151.949585 619.327332,151.938339 619.328491,159.367371 
	C619.334778,201.029037 619.381653,242.690857 619.259155,284.352173 
	C619.247498,288.319519 620.315979,291.255432 623.142944,294.056488 
	C645.259338,315.970306 667.263550,337.997284 689.295654,359.996094 
	C696.245972,366.935913 703.152710,373.919464 710.127930,380.834106 
	C712.424255,383.110565 712.729858,384.813904 710.104492,387.408264 
	C687.367065,409.877136 664.769531,432.487732 642.161011,455.086792 
	C635.569946,461.675079 629.159790,468.446136 622.498901,474.961945 
	C619.854492,477.548767 619.271240,480.454803 619.277466,483.962494 
	C619.351196,525.457397 619.320129,566.952454 619.316833,608.447510 
	C619.316223,615.963745 619.316589,615.994507 611.995728,615.996704 
	C570.834106,616.008911 529.672180,616.077087 488.511200,615.913818 
	C483.458008,615.893799 479.836365,617.350403 476.241333,620.977478 
	C448.237366,649.231567 419.982666,677.237061 391.943237,705.456238 
	C388.517609,708.903809 386.324310,708.119202 383.335236,705.112366 
	C355.156372,676.766541 326.849182,648.548035 298.710419,620.162598 
	C295.622986,617.048096 292.419617,615.864319 288.121979,615.878845 
	C246.794296,616.018677 205.466080,616.005676 164.138031,616.027893 
	C156.238449,616.032166 155.873596,615.702515 155.870728,607.984375 
	C155.857788,573.156250 155.871597,538.328125 155.875732,503.000000 
M478.626434,163.502228 
	C476.743195,162.108429 474.549805,162.234970 472.384827,162.235016 
	C416.068726,162.236359 359.752533,162.271210 303.436615,162.174088 
	C299.399872,162.167130 296.630646,163.635818 293.877411,166.440582 
	C278.711823,181.890091 263.403564,197.199982 248.101181,212.514709 
	C221.734436,238.902710 195.353104,265.276215 168.917572,291.595245 
	C166.855591,293.648132 166.001205,295.851501 166.002975,298.690552 
	C166.038193,355.173035 166.062881,411.655640 165.970062,468.138000 
	C165.962906,472.496735 167.490433,475.618561 170.536652,478.651184 
	C211.951157,519.881104 253.291107,561.186035 294.558655,602.563049 
	C296.884796,604.895325 299.211914,605.937256 302.436035,605.933105 
	C359.251862,605.860840 416.067810,605.834045 472.883667,605.884827 
	C476.329224,605.887939 478.829224,604.755737 481.218719,602.307678 
	C490.524811,592.773193 499.991974,583.395752 509.414001,573.974609 
	C541.687378,541.704285 573.944641,509.417633 606.287109,477.216675 
	C608.851990,474.662933 609.923767,472.016937 609.918823,468.407227 
	C609.842407,412.757751 609.818298,357.107941 609.983276,301.458832 
	C609.998413,296.355255 608.382385,292.770935 604.775940,289.254150 
	C588.559814,273.441223 572.550659,257.415161 556.529541,241.403214 
	C530.734070,215.622482 504.988037,189.792328 478.626434,163.502228 
M529.922607,200.571640 
	C556.144531,226.804535 582.366394,253.037430 609.444946,280.127289 
	C609.666626,277.129761 609.867981,275.671722 609.868591,274.213593 
	C609.882996,238.916763 609.804993,203.619629 609.954895,168.323456 
	C609.975708,163.424164 608.153503,162.125015 603.497559,162.143723 
	C568.201233,162.285675 532.904114,162.204514 497.607269,162.230774 
	C496.197418,162.231827 494.614319,161.739777 492.540039,163.827087 
	C504.857819,175.940414 517.135986,188.014816 529.922607,200.571640 
M598.479431,498.959534 
	C563.289917,534.182983 528.100464,569.406372 492.148621,605.392944 
	C494.785187,605.630798 496.071136,605.847290 497.357208,605.848206 
	C533.161438,605.873047 568.965942,605.810913 604.769531,605.964233 
	C609.294983,605.983582 609.897217,603.932556 609.888794,600.178528 
	C609.809509,564.874268 609.866821,529.569702 609.821289,494.265320 
	C609.819153,492.605286 610.374695,490.690247 608.020081,488.172577 
	C604.882690,491.738800 601.926880,495.098633 598.479431,498.959534 
M256.992035,189.492966 
	C265.691132,180.755966 274.390228,172.018951 284.140167,162.226532 
	C280.781494,162.226532 279.144440,162.226562 277.507355,162.226532 
	C242.707245,162.225937 207.907120,162.224365 173.107010,162.225494 
	C166.065903,162.225723 166.027802,162.230392 166.022934,169.526718 
	C165.999817,204.160233 165.989151,238.793747 166.020264,273.427216 
	C166.021835,275.168640 165.507401,277.066010 167.204086,279.216949 
	C197.054138,249.408035 226.788147,219.714981 256.992035,189.492966 
M217.927109,539.572510 
	C201.047745,522.695801 184.168381,505.819061 167.344131,488.997467 
	C165.625946,490.341461 165.946991,491.595001 165.947388,492.694885 
	C165.960251,528.663879 166.036758,564.632874 165.981049,600.601746 
	C165.975159,604.398010 167.132614,605.920471 171.129257,605.908264 
	C206.598511,605.799805 242.068268,605.858154 277.537781,605.811768 
	C279.075256,605.809753 280.887115,606.338745 282.764252,603.887329 
	C261.354340,582.654846 239.888046,561.366455 217.927109,539.572510 
M629.006592,454.506500 
	C651.136292,432.376862 673.224365,410.205292 695.445557,388.167969 
	C698.392334,385.245636 698.906738,383.399323 695.636963,380.167877 
	C671.607544,356.420105 647.777039,332.471191 623.851501,308.618103 
	C622.763611,307.533447 621.918457,305.832642 619.681213,306.161163 
	C619.681213,358.348816 619.681213,410.478210 619.681213,462.607605 
	C620.242676,463.049469 620.804199,463.491364 621.365662,463.933258 
	C623.739136,460.950470 626.112610,457.967651 629.006592,454.506500 
M78.523842,386.143066 
	C104.198853,411.467896 129.873856,436.792755 155.549118,462.117859 
	C155.549118,410.427216 155.549118,358.440674 155.549118,306.326172 
	C153.160263,306.601624 152.109543,308.201080 150.863785,309.448700 
	C145.926636,314.393250 141.058182,319.406342 136.124847,324.354706 
	C117.435730,343.100800 98.717529,361.817932 80.062393,380.597717 
	C78.781113,381.887573 76.575310,383.087891 78.523842,386.143066 
M430.500000,615.982849 
	C390.346252,615.982849 350.192474,615.982849 309.937805,615.982849 
	C310.155396,618.441833 311.214569,619.069458 312.023926,619.876404 
	C335.830902,643.611816 359.734375,667.252014 383.344910,691.181335 
	C387.040955,694.927246 388.988800,694.647888 392.450928,691.147827 
	C415.985718,667.355530 439.715820,643.756470 463.352325,620.064575 
	C464.315216,619.099426 465.970276,618.394531 465.327271,615.983215 
	C454.106812,615.983215 442.803406,615.983215 430.500000,615.982849 
M395.468994,80.032570 
	C394.738434,79.351448 393.996948,78.681648 393.279083,77.987389 
	C387.751312,72.641380 387.787964,72.675087 382.199860,78.269440 
	C358.793060,101.702385 335.360626,125.109726 311.953949,148.542786 
	C311.191895,149.305695 309.959442,149.918442 310.532257,151.596985 
	C362.151947,151.596985 413.802917,151.596985 466.831787,151.596985 
	C442.622528,127.337708 419.281342,103.948265 395.468994,80.032570 
z"/>
<path fill="#fff" opacity="1.000000" stroke="none" 
	d="
M316.626404,462.041016 
	C313.549683,468.981934 309.664978,475.284851 310.053619,483.035339 
	C310.211182,486.177185 307.986084,488.569336 305.960052,490.817474 
	C299.811188,497.640564 294.111755,504.723511 290.864807,513.515259 
	C288.788849,519.136353 283.437988,518.983459 278.973999,518.723938 
	C265.794617,517.957458 252.896042,515.361877 240.381744,511.048737 
	C238.301865,510.331879 236.531235,509.090057 234.906219,507.626526 
	C231.159866,504.252380 230.836716,501.032257 234.914795,498.089569 
	C247.546204,488.975006 261.957275,485.855927 277.328552,486.590210 
	C278.261780,486.634796 279.358978,486.745148 280.230652,488.874390 
	C274.948944,489.693604 269.862732,490.507629 264.768311,491.266266 
	C258.311768,492.227692 252.013550,493.653320 246.389618,497.190613 
	C244.554596,498.344788 242.362732,499.412872 242.501785,501.924683 
	C242.629150,504.225830 244.771545,505.073059 246.602249,505.857330 
	C256.890961,510.264832 267.811127,511.316193 278.828491,511.792755 
	C281.465179,511.906830 283.469818,510.770996 284.160797,508.182739 
	C288.549103,491.745300 294.468536,475.840424 300.707855,460.041840 
	C300.939880,459.454346 300.879059,458.751251 300.944366,458.190887 
	C299.774963,456.629974 298.095886,457.210968 296.731567,456.788788 
	C295.795258,456.499054 294.098541,456.104126 294.094940,455.742706 
	C294.029144,449.146179 286.737976,448.364838 284.460114,443.607819 
	C283.963348,442.570343 283.105286,441.708557 282.583221,440.679779 
	C282.033844,439.597046 281.847992,438.367432 282.969879,437.501251 
	C283.924377,436.764343 284.842163,437.329803 285.704681,437.896851 
	C287.776489,439.258911 289.859528,440.604858 292.956421,441.346344 
	C287.170868,432.304413 283.066040,423.222931 285.100952,412.387726 
	C290.927277,419.277313 295.068634,427.486969 303.281982,432.292786 
	C304.379028,428.783997 301.574524,425.807343 303.052490,422.521149 
	C305.716339,422.062744 305.948822,424.702484 307.671234,426.174133 
	C308.344635,416.623566 304.160248,408.037750 302.537567,398.037292 
	C307.438507,400.366150 308.031677,404.528107 310.962219,407.241364 
	C312.157043,404.547546 311.594208,402.063080 311.692139,399.677612 
	C311.830597,396.305115 310.692383,392.580536 314.846130,390.491638 
	C315.444611,390.190613 315.572662,388.712555 315.698669,387.750427 
	C317.128174,376.832794 321.305115,366.923828 326.747223,357.476715 
	C327.158386,356.762970 327.597412,355.682617 328.213287,355.527832 
	C335.365845,353.730591 337.590546,346.679901 342.252686,342.274445 
	C348.868835,336.022552 356.136932,330.888855 364.018494,326.508942 
	C366.026581,325.392975 368.378052,323.806091 369.308105,328.025421 
	C385.625092,311.936310 406.456665,306.586029 427.938171,303.034027 
	C442.423462,300.638794 457.223999,298.615143 470.385590,292.310944 
	C482.675293,286.424377 496.105530,283.393616 507.815857,276.202301 
	C511.996063,273.635254 517.289307,273.132690 521.563110,270.458710 
	C529.373596,265.571960 534.209412,258.333679 537.657104,250.000320 
	C538.329590,248.374847 538.484192,246.363098 541.167542,245.406754 
	C543.493164,249.778381 541.767212,254.297760 540.933533,258.273407 
	C534.883789,287.124481 518.247498,308.439209 492.370544,321.916168 
	C487.634155,324.382904 482.563599,326.670746 477.769562,329.300446 
	C462.911957,337.450378 447.100861,344.220032 435.478485,357.184326 
	C431.396179,361.737915 426.956360,366.132446 426.112976,372.940369 
	C425.763458,375.762054 421.536682,375.840271 419.237000,378.080475 
	C420.551819,380.495117 419.652832,382.994385 418.374939,385.288696 
	C410.395874,399.614380 402.104980,413.492035 386.490540,421.335602 
	C382.728027,423.225555 380.830688,428.431702 376.281769,430.472961 
	C370.385193,433.118927 364.959686,436.767670 357.651428,439.324982 
	C362.031616,439.847626 364.821533,437.069397 369.607910,438.398132 
	C360.863739,445.175598 351.190552,446.855804 342.461578,450.112274 
	C341.916199,451.968872 344.782867,451.746063 344.004700,453.672760 
	C341.473541,455.296539 338.250183,453.399292 335.427795,454.863220 
	C336.400116,458.256897 341.230530,458.167938 341.923553,462.095154 
	C337.715668,463.958862 334.759277,460.407471 331.189148,459.894592 
	C330.848633,462.368286 333.840881,463.986084 332.554688,466.633453 
	C329.247437,467.468384 328.936768,463.059784 326.130280,462.860260 
	C323.857788,464.950806 327.036835,468.996674 323.236267,470.803375 
	C320.773438,468.434326 321.163971,464.974213 319.955536,462.179169 
	C319.095673,460.190308 318.230438,459.082977 316.626404,462.041016 
M297.629333,484.483398 
	C299.357788,485.676514 300.008575,484.089783 300.604645,483.125763 
	C301.999542,480.869751 303.423828,478.578247 304.405365,476.128479 
	C318.882721,439.994720 339.487793,407.857788 366.818024,380.082947 
	C367.751465,379.134277 368.771179,378.243042 369.550964,377.178711 
	C370.286682,376.174500 371.948517,375.605865 371.352173,373.332306 
	C359.048462,386.019409 347.470703,398.757111 336.897461,412.510284 
	C320.106323,434.351440 307.562500,458.388519 297.629333,484.483398 
z"/>
<path fill="#fff" opacity="1.000000" stroke="none" 
	d="
M375.423218,453.384888 
	C369.850250,457.900635 370.019470,459.283051 375.824921,462.228516 
	C381.550110,465.133209 387.826050,464.827637 393.892548,465.360046 
	C407.575043,466.560883 421.190948,466.314209 434.216492,461.018433 
	C437.015106,459.880585 437.020782,459.894531 439.414368,457.295044 
	C438.293518,453.437317 433.570312,454.726166 431.344543,451.705261 
	C433.980591,448.750702 436.995270,449.874176 439.918152,450.707245 
	C442.858643,451.545319 445.157562,453.319366 445.426971,456.473541 
	C445.688751,459.538391 443.933716,461.832001 441.311584,463.389923 
	C433.547150,468.002960 424.877197,469.663208 416.128754,470.979218 
	C402.572418,473.018433 389.263458,471.124939 376.048340,468.173187 
	C374.434875,467.812805 372.841217,467.235779 371.334290,466.548798 
	C364.631592,463.493042 363.539612,457.725800 368.896057,452.710876 
	C375.743896,446.299622 384.445587,443.588806 393.355469,442.231079 
	C419.310730,438.275940 445.361664,437.257477 471.380280,441.799255 
	C479.771271,443.263977 487.914429,445.792023 495.468475,449.779175 
	C500.451355,452.409180 506.040985,455.132782 505.994598,461.886475 
	C505.946503,468.895599 500.244843,471.659332 494.900391,474.018982 
	C480.543671,480.357635 465.142120,482.414642 449.739227,484.004547 
	C411.096252,487.993225 372.315826,488.687531 333.500183,488.284637 
	C329.480255,488.242889 325.521088,487.861084 321.567535,487.254791 
	C320.290222,487.058929 318.828552,487.073578 318.505707,485.213837 
	C320.071777,483.123657 322.424988,483.823029 324.453491,483.799805 
	C333.950378,483.691162 343.449982,483.814850 352.946808,483.702759 
	C385.912933,483.313812 418.890198,482.234772 451.610596,478.315186 
	C465.648590,476.633606 480.026764,474.416595 493.001953,467.735504 
	C495.643890,466.375092 498.761871,465.144379 498.822205,461.553772 
	C498.886017,457.760315 495.652374,456.264954 492.943695,454.758942 
	C481.532318,448.414398 469.036774,445.479401 456.204590,444.429504 
	C434.745911,442.673828 413.324127,443.351807 392.077667,447.237183 
	C386.290985,448.295441 380.833557,450.247711 375.423218,453.384888 
z"/>
</svg>